<svg xmlns="http://www.w3.org/2000/svg" width="230.983" height="53.525" viewBox="0 0 230.983 53.525"><defs><style>.a{fill:#f67529;}.b{fill:#f1f1f1;}</style></defs><g transform="translate(-215 -62)"><g transform="translate(215 62)"><path class="a" d="M446.31,326.927a7.394,7.394,0,0,0-6.848-7.371v-.028H412.519s-7.519-.251-7.519,5.89v13.91s2.13-4.637,6.516-5.013h27.191c.068,0,.135.01.2.01s.135-.008.2-.01h.348V334.3a7.394,7.394,0,0,0,6.848-7.371" transform="translate(-405 -319.527)"/><path class="a" d="M438.99,376.131a6.492,6.492,0,0,0-5.634-6.711v-.025h-22.17S405,369.166,405,374.757v12.665s1.753-4.221,5.362-4.564h22.374c.056,0,.111.01.167.01s.111-.008.167-.01h.286v-.016a6.492,6.492,0,0,0,5.634-6.711" transform="translate(-404.999 -348.627)"/><path class="a" d="M420.541,420.043a7.356,7.356,0,1,1-7.356-7.356,7.356,7.356,0,0,1,7.356,7.356" transform="translate(-405.483 -373.891)"/></g><g transform="translate(265.785 62.27)"><path class="b" d="M544.21,326.828v5.092H533.352v5.8h8.387v4.867h-8.387V353.3h-6.4v-26.47Z" transform="translate(-526.95 -324.057)"/><path class="b" d="M590.119,340.887a9.475,9.475,0,0,1,3.856,3.725,12.237,12.237,0,0,1,0,11.382,9.467,9.467,0,0,1-3.856,3.725,12.652,12.652,0,0,1-11.138,0,9.433,9.433,0,0,1-3.875-3.725,12.234,12.234,0,0,1,0-11.382,9.44,9.44,0,0,1,3.875-3.725,12.651,12.651,0,0,1,11.138,0Zm-8.649,5.579a5.384,5.384,0,0,0-1.254,3.837,5.315,5.315,0,0,0,1.254,3.819,4.106,4.106,0,0,0,3.089,1.31,4.048,4.048,0,0,0,3.07-1.31,5.366,5.366,0,0,0,1.236-3.819,5.436,5.436,0,0,0-1.236-3.837,4.023,4.023,0,0,0-3.07-1.329A4.081,4.081,0,0,0,581.47,346.465Z" transform="translate(-554.232 -331.508)"/><path class="b" d="M643.248,340.808a7.883,7.883,0,0,1,4.1-1.123v6.852h-1.835a6.327,6.327,0,0,0-3.95,1.086,4.362,4.362,0,0,0-1.4,3.669v9.51h-6.4V339.909h6.4v3.932A9.077,9.077,0,0,1,643.248,340.808Z" transform="translate(-589.279 -331.56)"/><path class="b" d="M683.4,340.681a6.533,6.533,0,0,1,2.546,2.958v-3.782h6.365v20.892h-6.365v-3.782a6.528,6.528,0,0,1-2.546,2.958,7.563,7.563,0,0,1-4.118,1.086,8.459,8.459,0,0,1-4.624-1.292,8.827,8.827,0,0,1-3.22-3.725,14.366,14.366,0,0,1,0-11.4,8.854,8.854,0,0,1,3.22-3.706,8.46,8.46,0,0,1,4.624-1.292A7.564,7.564,0,0,1,683.4,340.681Zm-5.372,5.878a6.215,6.215,0,0,0,0,7.488,4.7,4.7,0,0,0,6.627-.037,5.99,5.99,0,0,0,0-7.432,4.357,4.357,0,0,0-3.313-1.366A4.314,4.314,0,0,0,678.028,346.559Z" transform="translate(-610.58 -331.508)"/><path class="b" d="M735.4,340.224l5.017,12.8,4.68-12.8h7.076l-13.029,30.851H732.1l4.9-10.745-8.761-20.106Z" transform="translate(-644.42 -331.875)"/><path class="b" d="M803.666,341.579a8.625,8.625,0,0,1,2.976,5.242h-5.99a3.322,3.322,0,0,0-1.179-2,3.581,3.581,0,0,0-2.3-.73,2.518,2.518,0,0,0-1.647.468,1.633,1.633,0,0,0-.562,1.329,1.559,1.559,0,0,0,1.029,1.46,16.378,16.378,0,0,0,3.239.973,32.228,32.228,0,0,1,3.932,1.142,6.491,6.491,0,0,1,2.658,1.891,5.227,5.227,0,0,1,1.124,3.519,5.4,5.4,0,0,1-.974,3.182,6.411,6.411,0,0,1-2.807,2.172,10.975,10.975,0,0,1-4.344.786,11.179,11.179,0,0,1-6.776-1.872,7.894,7.894,0,0,1-3.108-5.354h6.178a2.776,2.776,0,0,0,1.142,2.059,4.3,4.3,0,0,0,2.564.711,2.388,2.388,0,0,0,1.647-.506,1.7,1.7,0,0,0,.562-1.329,1.6,1.6,0,0,0-1.03-1.554,18.975,18.975,0,0,0-3.351-.992,26.716,26.716,0,0,1-3.819-1.048,6.3,6.3,0,0,1-2.583-1.816,5.055,5.055,0,0,1-1.086-3.426,5.592,5.592,0,0,1,2.134-4.549,9.3,9.3,0,0,1,6.028-1.741A9.589,9.589,0,0,1,803.666,341.579Z" transform="translate(-679.833 -331.508)"/><path class="b" d="M854.528,340.887a9.473,9.473,0,0,1,3.856,3.725,12.234,12.234,0,0,1,0,11.382,9.465,9.465,0,0,1-3.856,3.725,12.652,12.652,0,0,1-11.138,0,9.435,9.435,0,0,1-3.875-3.725,12.238,12.238,0,0,1,0-11.382,9.443,9.443,0,0,1,3.875-3.725,12.651,12.651,0,0,1,11.138,0Zm-8.649,5.579a5.383,5.383,0,0,0-1.254,3.837,5.313,5.313,0,0,0,1.254,3.819,4.105,4.105,0,0,0,3.089,1.31,4.049,4.049,0,0,0,3.07-1.31,5.368,5.368,0,0,0,1.235-3.819,5.438,5.438,0,0,0-1.235-3.837,4.024,4.024,0,0,0-3.07-1.329A4.079,4.079,0,0,0,845.879,346.465Z" transform="translate(-708.531 -331.508)"/><path class="b" d="M906.012,325.679a3.243,3.243,0,0,0-2.284.674,3.1,3.1,0,0,0-.786,2.171h3.781v5.391h-3.781v15.5h-6.4v-15.5h-2.509v-5.391h2.509V328.3a7.819,7.819,0,0,1,2.265-6.009q2.265-2.115,6.571-2.116.9,0,1.348.038v5.5Z" transform="translate(-741.164 -320.175)"/><path class="b" d="M940.827,348.424v5.5h-2.883a8.293,8.293,0,0,1-5.71-1.816q-2.041-1.815-2.04-6.009v-7.675h-2.808v-5.391h2.808v-5.129h6.4v5.129h4.193v5.391H936.6v7.788a2.346,2.346,0,0,0,.505,1.722,2.416,2.416,0,0,0,1.7.486Z" transform="translate(-760.629 -324.687)"/></g><g transform="translate(265.779 106.714)"><path class="b" d="M530.911,432.917h-2.639l-.5,1.388h-.834l2.222-5.891h.877l2.213,5.891h-.834Zm-.221-.605-1.1-3.03-1.1,3.03Z" transform="translate(-526.935 -427.783)"/><path class="b" d="M544.371,427.432v6.3H543.6v-6.3Z" transform="translate(-536.658 -427.21)"/><path class="b" d="M550.3,427.032a.622.622,0,0,1,.766,0,.483.483,0,0,1,0,.69.624.624,0,0,1-.766,0,.484.484,0,0,1,0-.69Zm.766,1.715v4.674h-.775v-4.674Z" transform="translate(-540.487 -426.9)"/><path class="b" d="M560.121,431.534a1.776,1.776,0,0,1,.66.911v-1.192h.775V436a2.372,2.372,0,0,1-.272,1.149,1.955,1.955,0,0,1-.767.783,2.282,2.282,0,0,1-1.149.281,2.468,2.468,0,0,1-1.541-.456,2.011,2.011,0,0,1-.758-1.23h.766a1.325,1.325,0,0,0,.515.736,1.646,1.646,0,0,0,.975.268,1.428,1.428,0,0,0,1.043-.4,1.507,1.507,0,0,0,.413-1.128v-1.268a1.777,1.777,0,0,1-.66.911,1.918,1.918,0,0,1-1.154.341,2.12,2.12,0,0,1-1.107-.289,2,2,0,0,1-.762-.83,3.073,3.073,0,0,1,0-2.55,2,2,0,0,1,.762-.834,2.117,2.117,0,0,1,1.107-.29A1.921,1.921,0,0,1,560.121,431.534Zm-2.077.8a2.05,2.05,0,0,0,0,2.512,1.5,1.5,0,0,0,1.145.455,1.593,1.593,0,0,0,.822-.213,1.481,1.481,0,0,0,.566-.6,1.9,1.9,0,0,0,.2-.9,1.925,1.925,0,0,0-.2-.9,1.448,1.448,0,0,0-.566-.6,1.615,1.615,0,0,0-.822-.209A1.5,1.5,0,0,0,558.044,432.338Z" transform="translate(-544.376 -429.405)"/><path class="b" d="M576.977,431.675a2.1,2.1,0,0,1,.5,1.511V435.9H576.7v-2.648a1.492,1.492,0,0,0-.358-1.073,1.277,1.277,0,0,0-.97-.374,1.326,1.326,0,0,0-1.022.413,1.708,1.708,0,0,0-.383,1.2V435.9H573.2v-4.674h.775v1.107a1.591,1.591,0,0,1,.634-.877,1.833,1.833,0,0,1,1.051-.307A1.745,1.745,0,0,1,576.977,431.675Z" transform="translate(-553.932 -429.381)"/><path class="b" d="M588.423,440.372v.911h-.936v-.911Z" transform="translate(-562.271 -434.762)"/><path class="b" d="M596.778,432.917h-2.639l-.5,1.388H592.8l2.222-5.891h.877l2.214,5.891h-.835Zm-.221-.605-1.1-3.03-1.1,3.03Z" transform="translate(-565.372 -427.783)"/><path class="b" d="M612.712,431.67a2.02,2.02,0,0,1,.724,1.277h-.817a1.2,1.2,0,0,0-.464-.787,1.638,1.638,0,0,0-1.685-.1,1.361,1.361,0,0,0-.541.575,2.349,2.349,0,0,0,0,1.916,1.361,1.361,0,0,0,.541.575,1.629,1.629,0,0,0,1.685-.1,1.214,1.214,0,0,0,.464-.792h.817a2.007,2.007,0,0,1-.724,1.281,2.289,2.289,0,0,1-1.481.473,2.408,2.408,0,0,1-1.192-.289,2.045,2.045,0,0,1-.813-.83,2.915,2.915,0,0,1,0-2.55,2.038,2.038,0,0,1,.813-.834,2.4,2.4,0,0,1,1.192-.29A2.275,2.275,0,0,1,612.712,431.67Z" transform="translate(-574.785 -429.405)"/><path class="b" d="M627.43,431.67a2.022,2.022,0,0,1,.724,1.277h-.818a1.2,1.2,0,0,0-.464-.787,1.639,1.639,0,0,0-1.686-.1,1.363,1.363,0,0,0-.541.575,2.35,2.35,0,0,0,0,1.916,1.363,1.363,0,0,0,.541.575,1.629,1.629,0,0,0,1.686-.1,1.211,1.211,0,0,0,.464-.792h.818a2.009,2.009,0,0,1-.724,1.281,2.289,2.289,0,0,1-1.481.473,2.407,2.407,0,0,1-1.192-.289,2.049,2.049,0,0,1-.813-.83,2.916,2.916,0,0,1,0-2.55,2.042,2.042,0,0,1,.813-.834,2.4,2.4,0,0,1,1.192-.29A2.275,2.275,0,0,1,627.43,431.67Z" transform="translate(-583.374 -429.405)"/><path class="b" d="M641.944,431.483a2.073,2.073,0,0,1,.834.834,2.839,2.839,0,0,1,0,2.55,2.08,2.08,0,0,1-.834.83,2.652,2.652,0,0,1-2.409,0,2.107,2.107,0,0,1-.839-.83,2.808,2.808,0,0,1,0-2.55,2.1,2.1,0,0,1,.839-.834,2.649,2.649,0,0,1,2.409,0Zm-1.975.578a1.408,1.408,0,0,0-.57.575,1.933,1.933,0,0,0-.217.958,1.913,1.913,0,0,0,.217.949,1.409,1.409,0,0,0,.57.575,1.678,1.678,0,0,0,1.541,0,1.412,1.412,0,0,0,.57-.575,1.918,1.918,0,0,0,.217-.949,1.938,1.938,0,0,0-.217-.958,1.411,1.411,0,0,0-.57-.575,1.677,1.677,0,0,0-1.541,0Z" transform="translate(-591.976 -429.405)"/><path class="b" d="M658.085,431.336v4.674h-.775v-1.1a1.572,1.572,0,0,1-.634.872,1.872,1.872,0,0,1-1.06.3,1.733,1.733,0,0,1-1.311-.523,2.084,2.084,0,0,1-.5-1.5v-2.724h.775v2.648a1.509,1.509,0,0,0,.357,1.077,1.271,1.271,0,0,0,.971.379,1.326,1.326,0,0,0,1.021-.413,1.711,1.711,0,0,0,.383-1.2v-2.486Z" transform="translate(-600.97 -429.489)"/><path class="b" d="M672.9,431.675a2.1,2.1,0,0,1,.5,1.511V435.9h-.774v-2.648a1.492,1.492,0,0,0-.358-1.073,1.277,1.277,0,0,0-.97-.374,1.327,1.327,0,0,0-1.022.413,1.708,1.708,0,0,0-.383,1.2V435.9h-.775v-4.674h.775v1.107a1.591,1.591,0,0,1,.634-.877,1.834,1.834,0,0,1,1.051-.307A1.745,1.745,0,0,1,672.9,431.675Z" transform="translate(-609.906 -429.381)"/><path class="b" d="M685.859,433.694v.681h-.579a1.487,1.487,0,0,1-1.069-.341,1.539,1.539,0,0,1-.353-1.141v-2.52h-.7V429.7h.7v-1.166h.783V429.7h1.208v.673h-1.208v2.537a.874.874,0,0,0,.166.617.8.8,0,0,0,.575.166Z" transform="translate(-618.102 -427.854)"/><path class="b" d="M696.7,431.534a1.776,1.776,0,0,1,.66.911v-1.192h.775v4.674h-.775v-1.192a1.777,1.777,0,0,1-.66.911,1.918,1.918,0,0,1-1.154.341,2.118,2.118,0,0,1-1.107-.289,2,2,0,0,1-.763-.83,3.078,3.078,0,0,1,0-2.55,2,2,0,0,1,.763-.834,2.115,2.115,0,0,1,1.107-.29A1.921,1.921,0,0,1,696.7,431.534Zm-2.077.8a2.05,2.05,0,0,0,0,2.512,1.5,1.5,0,0,0,1.145.455,1.6,1.6,0,0,0,.822-.213,1.48,1.48,0,0,0,.566-.6,1.9,1.9,0,0,0,.2-.9,1.924,1.924,0,0,0-.2-.9,1.446,1.446,0,0,0-.566-.6,1.617,1.617,0,0,0-.822-.209A1.5,1.5,0,0,0,694.623,432.338Z" transform="translate(-624.078 -429.405)"/><path class="b" d="M713.442,429.288a1.994,1.994,0,0,1,.762.834,3.073,3.073,0,0,1,0,2.55,2,2,0,0,1-.762.83,2.121,2.121,0,0,1-1.107.289,1.9,1.9,0,0,1-1.153-.345,1.751,1.751,0,0,1-.652-.907v1.192h-.775v-6.3h.775v2.818a1.751,1.751,0,0,1,.652-.907,1.9,1.9,0,0,1,1.153-.345A2.117,2.117,0,0,1,713.442,429.288Zm-2.146.608a1.438,1.438,0,0,0-.57.6,1.925,1.925,0,0,0-.2.9,1.9,1.9,0,0,0,.2.9,1.471,1.471,0,0,0,.57.6,1.6,1.6,0,0,0,.818.213,1.51,1.51,0,0,0,1.153-.455,2.047,2.047,0,0,0,0-2.512,1.512,1.512,0,0,0-1.153-.455A1.621,1.621,0,0,0,711.3,429.9Z" transform="translate(-633.622 -427.21)"/><path class="b" d="M726.353,427.432v6.3h-.775v-6.3Z" transform="translate(-642.856 -427.21)"/><path class="b" d="M736.411,433.756h-3.738a1.638,1.638,0,0,0,.456,1.2,1.485,1.485,0,0,0,1.051.4,1.519,1.519,0,0,0,.941-.285,1.179,1.179,0,0,0,.464-.762h.826a1.951,1.951,0,0,1-1.141,1.464,2.522,2.522,0,0,1-1.056.213,2.408,2.408,0,0,1-1.192-.289,2.048,2.048,0,0,1-.813-.83,2.915,2.915,0,0,1,0-2.55,2.041,2.041,0,0,1,.813-.834,2.4,2.4,0,0,1,1.192-.29,2.35,2.35,0,0,1,1.187.29,1.985,1.985,0,0,1,.775.775,2.176,2.176,0,0,1,.269,1.072A2.3,2.3,0,0,1,736.411,433.756Zm-.92-1.243a1.247,1.247,0,0,0-.536-.519,1.635,1.635,0,0,0-.74-.17,1.533,1.533,0,0,0-1.073.4,1.6,1.6,0,0,0-.468,1.162h2.988A1.592,1.592,0,0,0,735.492,432.513Z" transform="translate(-646.554 -429.405)"/><path class="b" d="M747.306,440.372v.911h-.937v-.911Z" transform="translate(-654.988 -434.762)"/><path class="b" d="M755.66,432.917h-2.639l-.5,1.388h-.834l2.222-5.891h.877L757,434.3h-.834Zm-.221-.605-1.1-3.03-1.1,3.03Z" transform="translate(-658.09 -427.783)"/><path class="b" d="M771.112,431.534a1.772,1.772,0,0,1,.66.911v-1.192h.775V436a2.368,2.368,0,0,1-.273,1.149,1.952,1.952,0,0,1-.766.783,2.282,2.282,0,0,1-1.149.281,2.467,2.467,0,0,1-1.541-.456,2.01,2.01,0,0,1-.758-1.23h.766a1.325,1.325,0,0,0,.515.736,1.646,1.646,0,0,0,.975.268,1.428,1.428,0,0,0,1.043-.4,1.507,1.507,0,0,0,.413-1.128v-1.268a1.774,1.774,0,0,1-.66.911,1.917,1.917,0,0,1-1.154.341,2.118,2.118,0,0,1-1.107-.289,2,2,0,0,1-.762-.83,3.073,3.073,0,0,1,0-2.55,1.993,1.993,0,0,1,.762-.834,2.115,2.115,0,0,1,1.107-.29A1.92,1.92,0,0,1,771.112,431.534Zm-2.077.8a2.051,2.051,0,0,0,0,2.512,1.5,1.5,0,0,0,1.145.455,1.6,1.6,0,0,0,.822-.213,1.48,1.48,0,0,0,.566-.6,1.9,1.9,0,0,0,.2-.9,1.924,1.924,0,0,0-.2-.9,1.447,1.447,0,0,0-.566-.6,1.617,1.617,0,0,0-.822-.209A1.5,1.5,0,0,0,769.035,432.338Z" transform="translate(-667.502 -429.405)"/><path class="b" d="M783.986,427.032a.622.622,0,0,1,.766,0,.483.483,0,0,1,0,.69.624.624,0,0,1-.766,0,.484.484,0,0,1,0-.69Zm.766,1.715v4.674h-.775v-4.674Z" transform="translate(-676.856 -426.9)"/><path class="b" d="M791.833,427.432v6.3h-.775v-6.3Z" transform="translate(-681.067 -427.21)"/><path class="b" d="M801.89,433.756h-3.737a1.637,1.637,0,0,0,.456,1.2,1.485,1.485,0,0,0,1.051.4,1.521,1.521,0,0,0,.941-.285,1.181,1.181,0,0,0,.463-.762h.826a1.95,1.95,0,0,1-1.141,1.464,2.522,2.522,0,0,1-1.056.213,2.408,2.408,0,0,1-1.192-.289,2.045,2.045,0,0,1-.813-.83,2.915,2.915,0,0,1,0-2.55,2.039,2.039,0,0,1,.813-.834,2.4,2.4,0,0,1,1.192-.29,2.351,2.351,0,0,1,1.188.29,1.99,1.99,0,0,1,.775.775,2.176,2.176,0,0,1,.269,1.072A2.276,2.276,0,0,1,801.89,433.756Zm-.919-1.243a1.244,1.244,0,0,0-.536-.519,1.635,1.635,0,0,0-.74-.17,1.533,1.533,0,0,0-1.073.4,1.6,1.6,0,0,0-.468,1.162h2.988A1.587,1.587,0,0,0,800.97,432.513Z" transform="translate(-684.765 -429.405)"/><path class="b" d="M812.785,440.372v.911h-.937v-.911Z" transform="translate(-693.199 -434.762)"/><path class="b" d="M821.139,432.917H818.5L818,434.3h-.834l2.222-5.891h.877l2.213,5.891h-.834Zm-.221-.605-1.1-3.03-1.1,3.03Z" transform="translate(-696.301 -427.783)"/><path class="b" d="M837.072,431.67a2.017,2.017,0,0,1,.723,1.277h-.817a1.2,1.2,0,0,0-.464-.787,1.638,1.638,0,0,0-1.685-.1,1.361,1.361,0,0,0-.541.575,2.347,2.347,0,0,0,0,1.916,1.362,1.362,0,0,0,.541.575,1.629,1.629,0,0,0,1.685-.1,1.21,1.21,0,0,0,.464-.792h.817a2,2,0,0,1-.723,1.281,2.289,2.289,0,0,1-1.481.473,2.408,2.408,0,0,1-1.192-.289,2.048,2.048,0,0,1-.813-.83,2.915,2.915,0,0,1,0-2.55,2.041,2.041,0,0,1,.813-.834,2.4,2.4,0,0,1,1.192-.29A2.275,2.275,0,0,1,837.072,431.67Z" transform="translate(-705.713 -429.405)"/><path class="b" d="M851.812,431.67a2.02,2.02,0,0,1,.724,1.277h-.818a1.2,1.2,0,0,0-.464-.787,1.638,1.638,0,0,0-1.685-.1,1.361,1.361,0,0,0-.541.575,2.35,2.35,0,0,0,0,1.916,1.361,1.361,0,0,0,.541.575,1.629,1.629,0,0,0,1.685-.1,1.211,1.211,0,0,0,.464-.792h.818a2.007,2.007,0,0,1-.724,1.281,2.289,2.289,0,0,1-1.481.473,2.41,2.41,0,0,1-1.192-.289,2.048,2.048,0,0,1-.813-.83,2.915,2.915,0,0,1,0-2.55,2.041,2.041,0,0,1,.813-.834,2.406,2.406,0,0,1,1.192-.29A2.275,2.275,0,0,1,851.812,431.67Z" transform="translate(-714.315 -429.405)"/><path class="b" d="M866.326,431.483a2.073,2.073,0,0,1,.834.834,2.84,2.84,0,0,1,0,2.55,2.08,2.08,0,0,1-.834.83,2.652,2.652,0,0,1-2.409,0,2.1,2.1,0,0,1-.838-.83,2.8,2.8,0,0,1,0-2.55,2.1,2.1,0,0,1,.838-.834,2.649,2.649,0,0,1,2.409,0Zm-1.976.578a1.408,1.408,0,0,0-.57.575,1.939,1.939,0,0,0-.217.958,1.919,1.919,0,0,0,.217.949,1.409,1.409,0,0,0,.57.575,1.679,1.679,0,0,0,1.541,0,1.412,1.412,0,0,0,.57-.575,1.918,1.918,0,0,0,.217-.949,1.938,1.938,0,0,0-.217-.958,1.411,1.411,0,0,0-.57-.575,1.678,1.678,0,0,0-1.541,0Z" transform="translate(-722.916 -429.405)"/><path class="b" d="M885.553,431.675a2.111,2.111,0,0,1,.5,1.511V435.9h-.775v-2.648a1.507,1.507,0,0,0-.336-1.056,1.194,1.194,0,0,0-.924-.366,1.269,1.269,0,0,0-.984.4,1.7,1.7,0,0,0-.37,1.187V435.9h-.775v-2.648a1.5,1.5,0,0,0-.341-1.056,1.2,1.2,0,0,0-.919-.366,1.279,1.279,0,0,0-.992.4,1.7,1.7,0,0,0-.37,1.187V435.9h-.775v-4.674h.775v1.064a1.52,1.52,0,0,1,.608-.847,1.9,1.9,0,0,1,2.043.009,1.645,1.645,0,0,1,.626.89,1.691,1.691,0,0,1,.655-.882,1.812,1.812,0,0,1,1.039-.311A1.732,1.732,0,0,1,885.553,431.675Z" transform="translate(-732.09 -429.381)"/><path class="b" d="M905.258,431.483a2,2,0,0,1,.762.834,3.078,3.078,0,0,1,0,2.55,2,2,0,0,1-.762.83,2.122,2.122,0,0,1-1.107.289,1.9,1.9,0,0,1-1.153-.345,1.75,1.75,0,0,1-.651-.907v3.406h-.775v-6.887h.775v1.192a1.751,1.751,0,0,1,.651-.907,1.9,1.9,0,0,1,1.153-.345A2.118,2.118,0,0,1,905.258,431.483Zm-2.146.608a1.44,1.44,0,0,0-.57.6,1.924,1.924,0,0,0-.2.9,1.9,1.9,0,0,0,.2.9,1.473,1.473,0,0,0,.57.6,1.6,1.6,0,0,0,.818.213,1.511,1.511,0,0,0,1.153-.455,2.048,2.048,0,0,0,0-2.512,1.512,1.512,0,0,0-1.153-.455A1.622,1.622,0,0,0,903.112,432.091Z" transform="translate(-745.558 -429.405)"/><path class="b" d="M918.149,427.432v6.3h-.775v-6.3Z" transform="translate(-754.78 -427.21)"/><path class="b" d="M924.082,427.032a.622.622,0,0,1,.766,0,.483.483,0,0,1,0,.69.624.624,0,0,1-.766,0,.484.484,0,0,1,0-.69Zm.766,1.715v4.674h-.775v-4.674Z" transform="translate(-758.61 -426.9)"/><path class="b" d="M933.617,431.606a1.737,1.737,0,0,1,.583,1.111h-.74a1.074,1.074,0,0,0-.345-.685,1.122,1.122,0,0,0-.787-.268.976.976,0,0,0-.652.2.674.674,0,0,0-.234.541.558.558,0,0,0,.157.413,1.007,1.007,0,0,0,.391.238,6.4,6.4,0,0,0,.643.174,6.453,6.453,0,0,1,.839.243,1.316,1.316,0,0,1,.545.4,1.114,1.114,0,0,1,.226.733,1.151,1.151,0,0,1-.43.928,1.734,1.734,0,0,1-1.145.358,2.19,2.19,0,0,1-1.362-.4,1.592,1.592,0,0,1-.621-1.116h.749a.977.977,0,0,0,.37.69,1.336,1.336,0,0,0,.864.264.9.9,0,0,0,.626-.2.687.687,0,0,0,.226-.536.589.589,0,0,0-.161-.434,1.068,1.068,0,0,0-.4-.247,5.993,5.993,0,0,0-.656-.179,6.407,6.407,0,0,1-.83-.238,1.269,1.269,0,0,1-.528-.379,1.06,1.06,0,0,1-.217-.7,1.176,1.176,0,0,1,.434-.949,1.791,1.791,0,0,1,1.184-.362A1.884,1.884,0,0,1,933.617,431.606Z" transform="translate(-762.548 -429.405)"/><path class="b" d="M947.547,429.5a2.1,2.1,0,0,1,.5,1.511v2.716h-.775v-2.648a1.494,1.494,0,0,0-.357-1.073,1.278,1.278,0,0,0-.971-.374,1.327,1.327,0,0,0-1.021.413,1.711,1.711,0,0,0-.383,1.2v2.478h-.775v-6.3h.775v2.733a1.591,1.591,0,0,1,.634-.877,1.835,1.835,0,0,1,1.052-.307A1.746,1.746,0,0,1,947.547,429.5Z" transform="translate(-770.182 -427.21)"/></g></g></svg>